<mxfile host="app.diagrams.net" modified="2023-06-18T16:33:16.275Z" agent="Mozilla/5.0 (Windows NT 10.0; Win64; x64; rv:102.0) Gecko/20100101 Firefox/102.0" etag="RX8ct2pbRBpvqlf8CsZ3" version="21.3.7" type="onedrive">
  <diagram id="a6Cck1g9hPxQS67mMN-J" name="Page-1">
    <mxGraphModel grid="0" page="1" gridSize="10" guides="1" tooltips="1" connect="1" arrows="1" fold="1" pageScale="1" pageWidth="850" pageHeight="1100" math="1" shadow="0">
      <root>
        <mxCell id="0" />
        <mxCell id="1" parent="0" />
        <mxCell id="JwH7_-hSPn-jCVah3qCO-198" value="" style="group" connectable="0" vertex="1" parent="1">
          <mxGeometry x="7.619999999999997" y="29" width="393" height="579" as="geometry" />
        </mxCell>
        <mxCell id="k6WwvUgcT5J0t6ogA-fB-32" value="" style="group;rotation=0;fontSize=18;" vertex="1" connectable="0" parent="JwH7_-hSPn-jCVah3qCO-198">
          <mxGeometry x="207.5" y="399" width="156" height="180" as="geometry" />
        </mxCell>
        <mxCell id="JnH83_9ppm5Isyr2-d8q-1" style="edgeStyle=orthogonalEdgeStyle;rounded=0;orthogonalLoop=1;jettySize=auto;html=1;exitX=0.5;exitY=1;exitDx=0;exitDy=0;fontSize=18;" edge="1" parent="k6WwvUgcT5J0t6ogA-fB-32">
          <mxGeometry relative="1" as="geometry">
            <mxPoint x="70" y="150" as="sourcePoint" />
            <mxPoint x="70" y="150" as="targetPoint" />
          </mxGeometry>
        </mxCell>
        <mxCell id="JnH83_9ppm5Isyr2-d8q-2" value="&lt;font style=&quot;font-size: 18px;&quot; face=&quot;Helvetica&quot;&gt;LSTM&lt;/font&gt;" style="rounded=1;whiteSpace=wrap;html=1;fillColor=#ffe6cc;strokeColor=#d79b00;rotation=0;fontSize=18;" vertex="1" parent="k6WwvUgcT5J0t6ogA-fB-32">
          <mxGeometry width="140" height="40" as="geometry" />
        </mxCell>
        <mxCell id="JnH83_9ppm5Isyr2-d8q-3" value="Conv" style="rounded=1;whiteSpace=wrap;html=1;fillColor=#ffe6cc;strokeColor=#d79b00;rotation=0;fontSize=18;" vertex="1" parent="k6WwvUgcT5J0t6ogA-fB-32">
          <mxGeometry y="70" width="140" height="40" as="geometry" />
        </mxCell>
        <mxCell id="JnH83_9ppm5Isyr2-d8q-4" value="" style="edgeStyle=orthogonalEdgeStyle;rounded=0;orthogonalLoop=1;jettySize=auto;html=1;fontSize=18;" edge="1" parent="k6WwvUgcT5J0t6ogA-fB-32" source="JnH83_9ppm5Isyr2-d8q-3" target="JnH83_9ppm5Isyr2-d8q-2">
          <mxGeometry relative="1" as="geometry" />
        </mxCell>
        <mxCell id="k6WwvUgcT5J0t6ogA-fB-39" value="&lt;font style=&quot;font-size: 20px;&quot; face=&quot;Helvetica&quot;&gt;$$F_{t}^{s}$$&lt;/font&gt;" style="text;html=1;strokeColor=none;fillColor=none;align=center;verticalAlign=middle;whiteSpace=wrap;rounded=0;shadow=0;glass=0;sketch=0;fontSize=18;rotation=0;" vertex="1" parent="k6WwvUgcT5J0t6ogA-fB-32">
          <mxGeometry x="35" y="150" width="70" height="30" as="geometry" />
        </mxCell>
        <mxCell id="HZ-Xd89VrN8wMB0TBjl1-7" value="&lt;font style=&quot;font-size: 17px;&quot; face=&quot;Helvetica&quot;&gt;$$[J_{1},... , J_{i}]$$&lt;/font&gt;" style="text;html=1;strokeColor=none;fillColor=none;align=center;verticalAlign=middle;whiteSpace=wrap;rounded=0;shadow=0;glass=0;sketch=0;fontSize=16;rotation=0;" vertex="1" parent="k6WwvUgcT5J0t6ogA-fB-32">
          <mxGeometry x="87" y="41" width="70" height="30" as="geometry" />
        </mxCell>
        <mxCell id="k6WwvUgcT5J0t6ogA-fB-40" value="" style="swimlane;startSize=0;rounded=1;shadow=0;glass=0;sketch=0;fontSize=18;strokeWidth=1;fillColor=none;gradientColor=none;dashed=1;rotation=0;" vertex="1" parent="JwH7_-hSPn-jCVah3qCO-198">
          <mxGeometry x="197.5" y="389" width="182.5" height="130" as="geometry">
            <mxRectangle x="320" y="210" width="50" height="40" as="alternateBounds" />
          </mxGeometry>
        </mxCell>
        <mxCell id="k6WwvUgcT5J0t6ogA-fB-44" value="" style="swimlane;startSize=0;rounded=1;shadow=0;glass=0;sketch=0;fontSize=18;strokeWidth=1;fillColor=none;gradientColor=none;dashed=1;rotation=0;" vertex="1" parent="JwH7_-hSPn-jCVah3qCO-198">
          <mxGeometry x="12.5" y="390" width="160" height="130" as="geometry">
            <mxRectangle x="320" y="210" width="50" height="40" as="alternateBounds" />
          </mxGeometry>
        </mxCell>
        <mxCell id="YbxbGNSjSYR2NM2Yrszk-1" value="" style="group;rotation=0;fontSize=18;" connectable="0" vertex="1" parent="k6WwvUgcT5J0t6ogA-fB-44">
          <mxGeometry x="10" y="10" width="140" height="180" as="geometry" />
        </mxCell>
        <mxCell id="YbxbGNSjSYR2NM2Yrszk-2" style="edgeStyle=orthogonalEdgeStyle;rounded=0;orthogonalLoop=1;jettySize=auto;html=1;exitX=0.5;exitY=1;exitDx=0;exitDy=0;fontSize=18;" edge="1" parent="YbxbGNSjSYR2NM2Yrszk-1">
          <mxGeometry relative="1" as="geometry">
            <mxPoint x="70" y="150" as="sourcePoint" />
            <mxPoint x="70" y="150" as="targetPoint" />
          </mxGeometry>
        </mxCell>
        <mxCell id="YbxbGNSjSYR2NM2Yrszk-4" value="Bi-LSTM" style="rounded=1;whiteSpace=wrap;html=1;fillColor=#ffe6cc;strokeColor=#d79b00;rotation=0;fontSize=18;" vertex="1" parent="YbxbGNSjSYR2NM2Yrszk-1">
          <mxGeometry y="34" width="140" height="40" as="geometry" />
        </mxCell>
        <mxCell id="YbxbGNSjSYR2NM2Yrszk-123" value="&lt;font style=&quot;font-size: 20px;&quot; face=&quot;Helvetica&quot;&gt;$$F_{w}^{s}$$&lt;/font&gt;" style="text;html=1;strokeColor=none;fillColor=none;align=center;verticalAlign=middle;whiteSpace=wrap;rounded=0;shadow=0;glass=0;sketch=0;fontSize=18;rotation=0;" vertex="1" parent="YbxbGNSjSYR2NM2Yrszk-1">
          <mxGeometry x="35" y="150" width="70" height="30" as="geometry" />
        </mxCell>
        <mxCell id="0NZ9cc7dHBJupp9qLAGi-3" value="" style="endArrow=classic;html=1;rounded=0;fontSize=18;entryX=0.5;entryY=1;entryDx=0;entryDy=0;" edge="1" parent="YbxbGNSjSYR2NM2Yrszk-1" target="YbxbGNSjSYR2NM2Yrszk-4">
          <mxGeometry width="50" height="50" relative="1" as="geometry">
            <mxPoint x="70" y="154" as="sourcePoint" />
            <mxPoint x="70" y="94" as="targetPoint" />
          </mxGeometry>
        </mxCell>
        <mxCell id="k6WwvUgcT5J0t6ogA-fB-45" value="" style="endArrow=classic;html=1;rounded=0;fontSize=18;entryX=0.5;entryY=1;entryDx=0;entryDy=0;" edge="1" parent="JwH7_-hSPn-jCVah3qCO-198" target="JnH83_9ppm5Isyr2-d8q-3">
          <mxGeometry width="50" height="50" relative="1" as="geometry">
            <mxPoint x="277.5" y="553" as="sourcePoint" />
            <mxPoint x="277.5" y="512" as="targetPoint" />
          </mxGeometry>
        </mxCell>
        <mxCell id="k6WwvUgcT5J0t6ogA-fB-47" value="&lt;font style=&quot;font-size: 17px;&quot; face=&quot;Helvetica&quot;&gt;Channel B&lt;/font&gt;" style="text;html=1;strokeColor=none;fillColor=none;align=center;verticalAlign=middle;whiteSpace=wrap;rounded=0;shadow=0;glass=0;dashed=1;sketch=0;fontSize=17;direction=west;rotation=-90;" vertex="1" parent="JwH7_-hSPn-jCVah3qCO-198">
          <mxGeometry x="343.5" y="446" width="90" height="9" as="geometry" />
        </mxCell>
        <mxCell id="k6WwvUgcT5J0t6ogA-fB-48" value="&lt;font style=&quot;font-size: 17px;&quot; face=&quot;Helvetica&quot;&gt;Channel A&lt;/font&gt;" style="text;html=1;strokeColor=none;fillColor=none;align=center;verticalAlign=middle;whiteSpace=wrap;rounded=0;shadow=0;glass=0;dashed=1;sketch=0;fontSize=17;direction=west;rotation=-90;" vertex="1" parent="JwH7_-hSPn-jCVah3qCO-198">
          <mxGeometry x="-40.5" y="452" width="90" height="9" as="geometry" />
        </mxCell>
        <mxCell id="YbxbGNSjSYR2NM2Yrszk-6" value="" style="endArrow=classic;html=1;rounded=0;exitX=0.5;exitY=0;exitDx=0;exitDy=0;endFill=1;entryX=0.76;entryY=1.006;entryDx=0;entryDy=0;entryPerimeter=0;fontSize=18;" edge="1" parent="JwH7_-hSPn-jCVah3qCO-198" source="JnH83_9ppm5Isyr2-d8q-2" target="JwH7_-hSPn-jCVah3qCO-164">
          <mxGeometry width="50" height="50" relative="1" as="geometry">
            <mxPoint x="277.5" y="357" as="sourcePoint" />
            <mxPoint x="277.24" y="331.5999999999999" as="targetPoint" />
          </mxGeometry>
        </mxCell>
        <mxCell id="0NZ9cc7dHBJupp9qLAGi-1" value="" style="endArrow=classic;html=1;rounded=0;fontSize=18;exitX=0.5;exitY=0;exitDx=0;exitDy=0;endFill=1;entryX=0.2;entryY=1.033;entryDx=0;entryDy=0;entryPerimeter=0;startArrow=none;startFill=0;" edge="1" parent="JwH7_-hSPn-jCVah3qCO-198" source="YbxbGNSjSYR2NM2Yrszk-4" target="JwH7_-hSPn-jCVah3qCO-164">
          <mxGeometry width="50" height="50" relative="1" as="geometry">
            <mxPoint x="92.5" y="405" as="sourcePoint" />
            <mxPoint x="92.76999999999998" y="330.52" as="targetPoint" />
          </mxGeometry>
        </mxCell>
        <mxCell id="HZ-Xd89VrN8wMB0TBjl1-4" value="&lt;font style=&quot;font-size: 17px;&quot; face=&quot;Helvetica&quot;&gt;$$[h_{1}^{B},... , h_{t}^{B}]$$&lt;/font&gt;" style="text;html=1;strokeColor=none;fillColor=none;align=center;verticalAlign=middle;whiteSpace=wrap;rounded=0;shadow=0;glass=0;sketch=0;fontSize=16;rotation=0;" vertex="1" parent="JwH7_-hSPn-jCVah3qCO-198">
          <mxGeometry x="298.5" y="359" width="70" height="30" as="geometry" />
        </mxCell>
        <mxCell id="HZ-Xd89VrN8wMB0TBjl1-5" value="&lt;font style=&quot;font-size: 17px;&quot; face=&quot;Helvetica&quot;&gt;$$[h_{1}^{A},... , h_{t}^{A}]$$&lt;/font&gt;" style="text;html=1;strokeColor=none;fillColor=none;align=center;verticalAlign=middle;whiteSpace=wrap;rounded=0;shadow=0;glass=0;sketch=0;fontSize=16;rotation=0;" vertex="1" parent="JwH7_-hSPn-jCVah3qCO-198">
          <mxGeometry x="111.5" y="360" width="70" height="30" as="geometry" />
        </mxCell>
        <mxCell id="JwH7_-hSPn-jCVah3qCO-159" value="" style="ellipse;whiteSpace=wrap;html=1;aspect=fixed;rounded=1;shadow=0;glass=0;sketch=0;strokeWidth=1;fillColor=#ffe6cc;strokeColor=#d79b00;rotation=0;fontSize=18;" vertex="1" parent="JwH7_-hSPn-jCVah3qCO-198">
          <mxGeometry x="173.5" y="59" width="35" height="35" as="geometry" />
        </mxCell>
        <mxCell id="JwH7_-hSPn-jCVah3qCO-160" value="" style="endArrow=classic;html=1;rounded=0;fontSize=18;exitX=0.5;exitY=0;exitDx=0;exitDy=0;" edge="1" parent="JwH7_-hSPn-jCVah3qCO-198" source="JwH7_-hSPn-jCVah3qCO-159">
          <mxGeometry width="50" height="50" relative="1" as="geometry">
            <mxPoint x="664.5" y="150" as="sourcePoint" />
            <mxPoint x="191.5" y="32" as="targetPoint" />
          </mxGeometry>
        </mxCell>
        <mxCell id="JwH7_-hSPn-jCVah3qCO-161" value="&lt;font style=&quot;font-size: 20px;&quot; face=&quot;Helvetica&quot;&gt;$$F_{P}^{S}$$&lt;/font&gt;" style="text;html=1;strokeColor=none;fillColor=none;align=center;verticalAlign=middle;whiteSpace=wrap;rounded=0;shadow=0;glass=0;dashed=1;sketch=0;fontSize=18;rotation=0;" vertex="1" parent="JwH7_-hSPn-jCVah3qCO-198">
          <mxGeometry x="161.5" width="60" height="30" as="geometry" />
        </mxCell>
        <mxCell id="JwH7_-hSPn-jCVah3qCO-162" value="&lt;font style=&quot;font-size: 17px;&quot; face=&quot;Helvetica&quot;&gt;Prediction Layer&lt;/font&gt;&lt;font style=&quot;font-size: 17px;&quot; face=&quot;Helvetica&quot;&gt;&lt;br style=&quot;font-size: 17px;&quot;&gt;&lt;/font&gt;" style="text;html=1;strokeColor=none;fillColor=none;align=center;verticalAlign=middle;whiteSpace=wrap;rounded=0;shadow=0;glass=0;dashed=1;sketch=0;fontSize=17;direction=west;rotation=-90;" vertex="1" parent="JwH7_-hSPn-jCVah3qCO-198">
          <mxGeometry x="-54.3" y="92.2" width="135.62" height="9" as="geometry" />
        </mxCell>
        <mxCell id="JwH7_-hSPn-jCVah3qCO-163" value="" style="swimlane;startSize=0;rounded=1;shadow=0;glass=0;sketch=0;fontSize=18;strokeWidth=1;fillColor=none;gradientColor=none;dashed=1;rotation=0;" vertex="1" parent="JwH7_-hSPn-jCVah3qCO-198">
          <mxGeometry x="21.5" width="339" height="189" as="geometry">
            <mxRectangle x="320" y="210" width="50" height="40" as="alternateBounds" />
          </mxGeometry>
        </mxCell>
        <mxCell id="JwH7_-hSPn-jCVah3qCO-164" value="" style="rounded=1;whiteSpace=wrap;html=1;shadow=0;glass=0;sketch=0;strokeWidth=1;fillColor=#d5e8d4;strokeColor=#82b366;rotation=0;fontSize=18;" vertex="1" parent="JwH7_-hSPn-jCVah3qCO-163">
          <mxGeometry x="5" y="301" width="330" height="40" as="geometry" />
        </mxCell>
        <mxCell id="JwH7_-hSPn-jCVah3qCO-165" value="&lt;font style=&quot;font-size: 18px;&quot;&gt;Concatenation&lt;/font&gt;" style="text;html=1;strokeColor=none;fillColor=none;align=center;verticalAlign=middle;whiteSpace=wrap;rounded=0;shadow=0;glass=0;sketch=0;rotation=0;fontSize=18;" vertex="1" parent="JwH7_-hSPn-jCVah3qCO-163">
          <mxGeometry x="112" y="305" width="115.5" height="30" as="geometry" />
        </mxCell>
        <mxCell id="JwH7_-hSPn-jCVah3qCO-166" value="" style="rounded=1;whiteSpace=wrap;html=1;shadow=0;glass=0;sketch=0;strokeWidth=1;fillColor=#d5e8d4;strokeColor=#82b366;rotation=0;fontSize=18;" vertex="1" parent="JwH7_-hSPn-jCVah3qCO-163">
          <mxGeometry x="4" y="140" width="330" height="40" as="geometry" />
        </mxCell>
        <mxCell id="JwH7_-hSPn-jCVah3qCO-167" value="" style="ellipse;whiteSpace=wrap;html=1;aspect=fixed;rounded=1;shadow=0;glass=0;sketch=0;strokeWidth=1;fillColor=#ffe6cc;strokeColor=#d79b00;rotation=0;fontSize=18;" vertex="1" parent="JwH7_-hSPn-jCVah3qCO-163">
          <mxGeometry x="13" y="143" width="35" height="35" as="geometry" />
        </mxCell>
        <mxCell id="JwH7_-hSPn-jCVah3qCO-168" value="" style="ellipse;whiteSpace=wrap;html=1;aspect=fixed;rounded=1;shadow=0;glass=0;sketch=0;strokeWidth=1;fillColor=#ffe6cc;strokeColor=#d79b00;rotation=0;fontSize=18;" vertex="1" parent="JwH7_-hSPn-jCVah3qCO-163">
          <mxGeometry x="67" y="143" width="35" height="35" as="geometry" />
        </mxCell>
        <mxCell id="JwH7_-hSPn-jCVah3qCO-169" value="" style="ellipse;whiteSpace=wrap;html=1;aspect=fixed;rounded=1;shadow=0;glass=0;sketch=0;strokeWidth=1;fillColor=#ffe6cc;strokeColor=#d79b00;rotation=0;fontSize=18;" vertex="1" parent="JwH7_-hSPn-jCVah3qCO-163">
          <mxGeometry x="125" y="143" width="35" height="35" as="geometry" />
        </mxCell>
        <mxCell id="JwH7_-hSPn-jCVah3qCO-170" value="" style="ellipse;whiteSpace=wrap;html=1;aspect=fixed;rounded=1;shadow=0;glass=0;sketch=0;strokeWidth=1;fillColor=#ffe6cc;strokeColor=#d79b00;rotation=0;fontSize=18;" vertex="1" parent="JwH7_-hSPn-jCVah3qCO-163">
          <mxGeometry x="288" y="143" width="35" height="35" as="geometry" />
        </mxCell>
        <mxCell id="JwH7_-hSPn-jCVah3qCO-171" value="" style="group;rotation=0;fontSize=18;" connectable="0" vertex="1" parent="JwH7_-hSPn-jCVah3qCO-163">
          <mxGeometry x="195" y="155" width="50" height="10" as="geometry" />
        </mxCell>
        <mxCell id="JwH7_-hSPn-jCVah3qCO-172" value="" style="ellipse;whiteSpace=wrap;html=1;aspect=fixed;rounded=1;shadow=0;glass=0;sketch=0;strokeWidth=1;fillColor=#ffe6cc;strokeColor=#d79b00;rotation=0;fontSize=18;" vertex="1" parent="JwH7_-hSPn-jCVah3qCO-171">
          <mxGeometry width="10" height="10" as="geometry" />
        </mxCell>
        <mxCell id="JwH7_-hSPn-jCVah3qCO-173" value="" style="ellipse;whiteSpace=wrap;html=1;aspect=fixed;rounded=1;shadow=0;glass=0;sketch=0;strokeWidth=1;fillColor=#ffe6cc;strokeColor=#d79b00;rotation=0;fontSize=18;" vertex="1" parent="JwH7_-hSPn-jCVah3qCO-171">
          <mxGeometry x="20" width="10" height="10" as="geometry" />
        </mxCell>
        <mxCell id="JwH7_-hSPn-jCVah3qCO-174" value="" style="ellipse;whiteSpace=wrap;html=1;aspect=fixed;rounded=1;shadow=0;glass=0;sketch=0;strokeWidth=1;fillColor=#ffe6cc;strokeColor=#d79b00;rotation=0;fontSize=18;" vertex="1" parent="JwH7_-hSPn-jCVah3qCO-171">
          <mxGeometry x="40" width="10" height="10" as="geometry" />
        </mxCell>
        <mxCell id="JwH7_-hSPn-jCVah3qCO-175" style="edgeStyle=orthogonalEdgeStyle;rounded=0;orthogonalLoop=1;jettySize=auto;html=1;fontSize=18;entryX=0.5;entryY=1;entryDx=0;entryDy=0;" edge="1" parent="JwH7_-hSPn-jCVah3qCO-163" target="JwH7_-hSPn-jCVah3qCO-176">
          <mxGeometry relative="1" as="geometry">
            <mxPoint x="169.70999999999998" y="280" as="targetPoint" />
            <mxPoint x="169.70999999999998" y="301" as="sourcePoint" />
          </mxGeometry>
        </mxCell>
        <mxCell id="JwH7_-hSPn-jCVah3qCO-176" value="" style="rounded=1;whiteSpace=wrap;html=1;shadow=0;glass=0;sketch=0;strokeWidth=1;fillColor=#f8cecc;strokeColor=#b85450;rotation=0;fontSize=18;" vertex="1" parent="JwH7_-hSPn-jCVah3qCO-163">
          <mxGeometry x="4.75" y="229" width="330" height="40" as="geometry" />
        </mxCell>
        <mxCell id="JwH7_-hSPn-jCVah3qCO-177" value="&lt;font style=&quot;font-size: 18px;&quot;&gt;Self-Attention&lt;/font&gt;" style="text;html=1;strokeColor=none;fillColor=none;align=center;verticalAlign=middle;whiteSpace=wrap;rounded=0;shadow=0;glass=0;sketch=0;rotation=0;fontSize=18;" vertex="1" parent="JwH7_-hSPn-jCVah3qCO-163">
          <mxGeometry x="112" y="234" width="115.5" height="30" as="geometry" />
        </mxCell>
        <mxCell id="JwH7_-hSPn-jCVah3qCO-178" value="&lt;font style=&quot;font-size: 18px;&quot; face=&quot;Helvetica&quot;&gt;$$[h_{1}^{A},..., h_{t}^{B}]$$&lt;/font&gt;" style="text;html=1;strokeColor=none;fillColor=none;align=center;verticalAlign=middle;whiteSpace=wrap;rounded=0;shadow=0;glass=0;sketch=0;fontSize=18;rotation=0;" vertex="1" parent="JwH7_-hSPn-jCVah3qCO-163">
          <mxGeometry x="183" y="271" width="95" height="30" as="geometry" />
        </mxCell>
        <mxCell id="JwH7_-hSPn-jCVah3qCO-179" value="&lt;font style=&quot;font-size: 18px;&quot; face=&quot;Helvetica&quot;&gt;$$\alpha_{n}$$&lt;/font&gt;" style="text;html=1;strokeColor=none;fillColor=none;align=center;verticalAlign=middle;whiteSpace=wrap;rounded=0;shadow=0;glass=0;sketch=0;fontSize=18;rotation=0;" vertex="1" parent="JwH7_-hSPn-jCVah3qCO-163">
          <mxGeometry x="292" y="148" width="31" height="25" as="geometry" />
        </mxCell>
        <mxCell id="JwH7_-hSPn-jCVah3qCO-180" value="&lt;font style=&quot;font-size: 18px;&quot; face=&quot;Helvetica&quot;&gt;$$\alpha_{3}$$&lt;/font&gt;" style="text;html=1;strokeColor=none;fillColor=none;align=center;verticalAlign=middle;whiteSpace=wrap;rounded=0;shadow=0;glass=0;sketch=0;fontSize=18;rotation=0;" vertex="1" parent="JwH7_-hSPn-jCVah3qCO-163">
          <mxGeometry x="127" y="148" width="31" height="25" as="geometry" />
        </mxCell>
        <mxCell id="JwH7_-hSPn-jCVah3qCO-181" value="&lt;font style=&quot;font-size: 18px;&quot; face=&quot;Helvetica&quot;&gt;$$\alpha_{1}$$&lt;/font&gt;" style="text;html=1;strokeColor=none;fillColor=none;align=center;verticalAlign=middle;whiteSpace=wrap;rounded=0;shadow=0;glass=0;sketch=0;fontSize=18;rotation=0;" vertex="1" parent="JwH7_-hSPn-jCVah3qCO-163">
          <mxGeometry x="15" y="148" width="31" height="25" as="geometry" />
        </mxCell>
        <mxCell id="JwH7_-hSPn-jCVah3qCO-182" value="&lt;font style=&quot;font-size: 18px;&quot; face=&quot;Helvetica&quot;&gt;$$\alpha_{2}$$&lt;/font&gt;" style="text;html=1;strokeColor=none;fillColor=none;align=center;verticalAlign=middle;whiteSpace=wrap;rounded=0;shadow=0;glass=0;sketch=0;fontSize=18;rotation=0;" vertex="1" parent="JwH7_-hSPn-jCVah3qCO-163">
          <mxGeometry x="69" y="148" width="31" height="25" as="geometry" />
        </mxCell>
        <mxCell id="JwH7_-hSPn-jCVah3qCO-183" value="&lt;font style=&quot;font-size: 18px;&quot; face=&quot;Helvetica&quot;&gt;$$[P_{1}h_{1}^{A},..., P_{t}h_{t}^{B}]$$&lt;/font&gt;" style="text;html=1;strokeColor=none;fillColor=none;align=center;verticalAlign=middle;whiteSpace=wrap;rounded=0;shadow=0;glass=0;sketch=0;fontSize=18;rotation=0;" vertex="1" parent="JwH7_-hSPn-jCVah3qCO-163">
          <mxGeometry x="188" y="199" width="130" height="30" as="geometry" />
        </mxCell>
        <mxCell id="JwH7_-hSPn-jCVah3qCO-189" style="edgeStyle=orthogonalEdgeStyle;rounded=0;orthogonalLoop=1;jettySize=auto;html=1;fontSize=18;entryX=0.5;entryY=1;entryDx=0;entryDy=0;exitX=0.5;exitY=0;exitDx=0;exitDy=0;" edge="1" parent="JwH7_-hSPn-jCVah3qCO-163" source="JwH7_-hSPn-jCVah3qCO-176" target="JwH7_-hSPn-jCVah3qCO-166">
          <mxGeometry relative="1" as="geometry">
            <mxPoint x="170" y="197" as="targetPoint" />
            <mxPoint x="169.88" y="227" as="sourcePoint" />
          </mxGeometry>
        </mxCell>
        <mxCell id="JwH7_-hSPn-jCVah3qCO-184" style="edgeStyle=none;rounded=0;orthogonalLoop=1;jettySize=auto;html=1;exitX=0.5;exitY=0;exitDx=0;exitDy=0;entryX=0.5;entryY=1;entryDx=0;entryDy=0;endArrow=none;endFill=0;fontSize=18;" edge="1" parent="JwH7_-hSPn-jCVah3qCO-198" target="JwH7_-hSPn-jCVah3qCO-159">
          <mxGeometry relative="1" as="geometry">
            <mxPoint x="55.5" y="140" as="sourcePoint" />
          </mxGeometry>
        </mxCell>
        <mxCell id="JwH7_-hSPn-jCVah3qCO-185" style="edgeStyle=none;rounded=0;orthogonalLoop=1;jettySize=auto;html=1;exitX=0.5;exitY=0;exitDx=0;exitDy=0;endArrow=none;endFill=0;entryX=0.5;entryY=1;entryDx=0;entryDy=0;fontSize=18;" edge="1" parent="JwH7_-hSPn-jCVah3qCO-198" target="JwH7_-hSPn-jCVah3qCO-159">
          <mxGeometry relative="1" as="geometry">
            <mxPoint x="186.5" y="100" as="targetPoint" />
            <mxPoint x="110.5" y="140" as="sourcePoint" />
          </mxGeometry>
        </mxCell>
        <mxCell id="JwH7_-hSPn-jCVah3qCO-186" style="rounded=0;orthogonalLoop=1;jettySize=auto;html=1;exitX=0.5;exitY=0;exitDx=0;exitDy=0;endArrow=none;endFill=0;entryX=0.5;entryY=1;entryDx=0;entryDy=0;fontSize=18;" edge="1" parent="JwH7_-hSPn-jCVah3qCO-198" target="JwH7_-hSPn-jCVah3qCO-159">
          <mxGeometry relative="1" as="geometry">
            <mxPoint x="186.5" y="100" as="targetPoint" />
            <mxPoint x="166.5" y="140" as="sourcePoint" />
          </mxGeometry>
        </mxCell>
        <mxCell id="JwH7_-hSPn-jCVah3qCO-187" style="edgeStyle=none;rounded=0;orthogonalLoop=1;jettySize=auto;html=1;exitX=0.5;exitY=0;exitDx=0;exitDy=0;endArrow=none;endFill=0;entryX=0.5;entryY=1;entryDx=0;entryDy=0;fontSize=18;" edge="1" parent="JwH7_-hSPn-jCVah3qCO-198" target="JwH7_-hSPn-jCVah3qCO-159">
          <mxGeometry relative="1" as="geometry">
            <mxPoint x="186.5" y="100" as="targetPoint" />
            <mxPoint x="326.5" y="140" as="sourcePoint" />
          </mxGeometry>
        </mxCell>
        <mxCell id="JwH7_-hSPn-jCVah3qCO-188" value="" style="swimlane;startSize=0;rounded=1;shadow=0;glass=0;sketch=0;fontSize=18;strokeWidth=1;fillColor=none;gradientColor=none;dashed=1;" vertex="1" parent="JwH7_-hSPn-jCVah3qCO-198">
          <mxGeometry x="20.5" y="199" width="340" height="153" as="geometry">
            <mxRectangle x="320" y="210" width="50" height="40" as="alternateBounds" />
          </mxGeometry>
        </mxCell>
        <mxCell id="JwH7_-hSPn-jCVah3qCO-190" value="&lt;font style=&quot;font-size: 17px;&quot;&gt;Attention Layer&lt;/font&gt;" style="text;html=1;strokeColor=none;fillColor=none;align=center;verticalAlign=middle;whiteSpace=wrap;rounded=0;shadow=0;glass=0;dashed=1;sketch=0;fontSize=17;direction=west;rotation=-90;" vertex="1" parent="JwH7_-hSPn-jCVah3qCO-198">
          <mxGeometry x="-44.87" y="275.88" width="116.75" height="9" as="geometry" />
        </mxCell>
        <mxCell id="JwH7_-hSPn-jCVah3qCO-199" value="" style="group" connectable="0" vertex="1" parent="1">
          <mxGeometry x="433.62" y="24" width="393" height="580" as="geometry" />
        </mxCell>
        <mxCell id="JwH7_-hSPn-jCVah3qCO-200" value="" style="group;rotation=0;fontSize=18;" connectable="0" vertex="1" parent="JwH7_-hSPn-jCVah3qCO-199">
          <mxGeometry x="207.5" y="399" width="156" height="180" as="geometry" />
        </mxCell>
        <mxCell id="JwH7_-hSPn-jCVah3qCO-201" style="edgeStyle=orthogonalEdgeStyle;rounded=0;orthogonalLoop=1;jettySize=auto;html=1;exitX=0.5;exitY=1;exitDx=0;exitDy=0;fontSize=18;" edge="1" parent="JwH7_-hSPn-jCVah3qCO-200">
          <mxGeometry relative="1" as="geometry">
            <mxPoint x="70" y="150" as="sourcePoint" />
            <mxPoint x="70" y="150" as="targetPoint" />
          </mxGeometry>
        </mxCell>
        <mxCell id="JwH7_-hSPn-jCVah3qCO-202" value="&lt;font style=&quot;font-size: 18px;&quot; face=&quot;Helvetica&quot;&gt;LSTM&lt;/font&gt;" style="rounded=1;whiteSpace=wrap;html=1;fillColor=#ffe6cc;strokeColor=#d79b00;rotation=0;fontSize=18;" vertex="1" parent="JwH7_-hSPn-jCVah3qCO-200">
          <mxGeometry width="140" height="40" as="geometry" />
        </mxCell>
        <mxCell id="JwH7_-hSPn-jCVah3qCO-203" value="Conv" style="rounded=1;whiteSpace=wrap;html=1;fillColor=#ffe6cc;strokeColor=#d79b00;rotation=0;fontSize=18;" vertex="1" parent="JwH7_-hSPn-jCVah3qCO-200">
          <mxGeometry y="70" width="140" height="40" as="geometry" />
        </mxCell>
        <mxCell id="JwH7_-hSPn-jCVah3qCO-204" value="" style="edgeStyle=orthogonalEdgeStyle;rounded=0;orthogonalLoop=1;jettySize=auto;html=1;fontSize=18;" edge="1" parent="JwH7_-hSPn-jCVah3qCO-200" source="JwH7_-hSPn-jCVah3qCO-203" target="JwH7_-hSPn-jCVah3qCO-202">
          <mxGeometry relative="1" as="geometry" />
        </mxCell>
        <mxCell id="JwH7_-hSPn-jCVah3qCO-205" value="&lt;font style=&quot;font-size: 20px;&quot; face=&quot;Helvetica&quot;&gt;$$F_{t}^{s}$$&lt;/font&gt;" style="text;html=1;strokeColor=none;fillColor=none;align=center;verticalAlign=middle;whiteSpace=wrap;rounded=0;shadow=0;glass=0;sketch=0;fontSize=18;rotation=0;" vertex="1" parent="JwH7_-hSPn-jCVah3qCO-200">
          <mxGeometry x="35" y="150" width="70" height="30" as="geometry" />
        </mxCell>
        <mxCell id="JwH7_-hSPn-jCVah3qCO-206" value="&lt;font style=&quot;font-size: 17px;&quot; face=&quot;Helvetica&quot;&gt;$$[J_{1},... , J_{i}]$$&lt;/font&gt;" style="text;html=1;strokeColor=none;fillColor=none;align=center;verticalAlign=middle;whiteSpace=wrap;rounded=0;shadow=0;glass=0;sketch=0;fontSize=16;rotation=0;" vertex="1" parent="JwH7_-hSPn-jCVah3qCO-200">
          <mxGeometry x="87" y="41" width="70" height="30" as="geometry" />
        </mxCell>
        <mxCell id="JwH7_-hSPn-jCVah3qCO-207" value="" style="swimlane;startSize=0;rounded=1;shadow=0;glass=0;sketch=0;fontSize=18;strokeWidth=1;fillColor=none;gradientColor=none;dashed=1;rotation=0;" vertex="1" parent="JwH7_-hSPn-jCVah3qCO-199">
          <mxGeometry x="197.5" y="389" width="182.5" height="130" as="geometry">
            <mxRectangle x="320" y="210" width="50" height="40" as="alternateBounds" />
          </mxGeometry>
        </mxCell>
        <mxCell id="JwH7_-hSPn-jCVah3qCO-208" value="" style="swimlane;startSize=0;rounded=1;shadow=0;glass=0;sketch=0;fontSize=18;strokeWidth=1;fillColor=none;gradientColor=none;dashed=1;rotation=0;container=0;" vertex="1" parent="JwH7_-hSPn-jCVah3qCO-199">
          <mxGeometry x="12.5" y="390" width="163.5" height="129" as="geometry">
            <mxRectangle x="320" y="210" width="50" height="40" as="alternateBounds" />
          </mxGeometry>
        </mxCell>
        <mxCell id="JwH7_-hSPn-jCVah3qCO-214" value="" style="endArrow=classic;html=1;rounded=0;fontSize=18;entryX=0.5;entryY=1;entryDx=0;entryDy=0;" edge="1" parent="JwH7_-hSPn-jCVah3qCO-199" target="JwH7_-hSPn-jCVah3qCO-203">
          <mxGeometry width="50" height="50" relative="1" as="geometry">
            <mxPoint x="277.5" y="553" as="sourcePoint" />
            <mxPoint x="277.5" y="512" as="targetPoint" />
          </mxGeometry>
        </mxCell>
        <mxCell id="JwH7_-hSPn-jCVah3qCO-215" value="&lt;font style=&quot;font-size: 17px;&quot; face=&quot;Helvetica&quot;&gt;Channel B&lt;/font&gt;" style="text;html=1;strokeColor=none;fillColor=none;align=center;verticalAlign=middle;whiteSpace=wrap;rounded=0;shadow=0;glass=0;dashed=1;sketch=0;fontSize=17;direction=west;rotation=-90;" vertex="1" parent="JwH7_-hSPn-jCVah3qCO-199">
          <mxGeometry x="343.5" y="446" width="90" height="9" as="geometry" />
        </mxCell>
        <mxCell id="JwH7_-hSPn-jCVah3qCO-216" value="&lt;font style=&quot;font-size: 17px;&quot; face=&quot;Helvetica&quot;&gt;Channel A&lt;/font&gt;" style="text;html=1;strokeColor=none;fillColor=none;align=center;verticalAlign=middle;whiteSpace=wrap;rounded=0;shadow=0;glass=0;dashed=1;sketch=0;fontSize=17;direction=west;rotation=-90;" vertex="1" parent="JwH7_-hSPn-jCVah3qCO-199">
          <mxGeometry x="-40.5" y="452" width="90" height="9" as="geometry" />
        </mxCell>
        <mxCell id="JwH7_-hSPn-jCVah3qCO-217" value="" style="endArrow=classic;html=1;rounded=0;exitX=0.5;exitY=0;exitDx=0;exitDy=0;endFill=1;entryX=0.76;entryY=1.006;entryDx=0;entryDy=0;entryPerimeter=0;fontSize=18;" edge="1" parent="JwH7_-hSPn-jCVah3qCO-199" source="JwH7_-hSPn-jCVah3qCO-202" target="JwH7_-hSPn-jCVah3qCO-226">
          <mxGeometry width="50" height="50" relative="1" as="geometry">
            <mxPoint x="277.5" y="357" as="sourcePoint" />
            <mxPoint x="277.24" y="331.5999999999999" as="targetPoint" />
          </mxGeometry>
        </mxCell>
        <mxCell id="JwH7_-hSPn-jCVah3qCO-218" value="" style="endArrow=classic;html=1;rounded=0;fontSize=18;exitX=0.5;exitY=0;exitDx=0;exitDy=0;endFill=1;entryX=0.2;entryY=1.033;entryDx=0;entryDy=0;entryPerimeter=0;startArrow=none;startFill=0;" edge="1" parent="JwH7_-hSPn-jCVah3qCO-199" target="JwH7_-hSPn-jCVah3qCO-226">
          <mxGeometry width="50" height="50" relative="1" as="geometry">
            <mxPoint x="92.5" y="434" as="sourcePoint" />
            <mxPoint x="92.76999999999998" y="330.52" as="targetPoint" />
          </mxGeometry>
        </mxCell>
        <mxCell id="JwH7_-hSPn-jCVah3qCO-219" value="&lt;font style=&quot;font-size: 17px;&quot; face=&quot;Helvetica&quot;&gt;$$[h_{1}^{B},... , h_{t}^{B}]$$&lt;/font&gt;" style="text;html=1;strokeColor=none;fillColor=none;align=center;verticalAlign=middle;whiteSpace=wrap;rounded=0;shadow=0;glass=0;sketch=0;fontSize=16;rotation=0;" vertex="1" parent="JwH7_-hSPn-jCVah3qCO-199">
          <mxGeometry x="298.5" y="359" width="70" height="30" as="geometry" />
        </mxCell>
        <mxCell id="JwH7_-hSPn-jCVah3qCO-220" value="&lt;font style=&quot;font-size: 17px;&quot; face=&quot;Helvetica&quot;&gt;$$[h_{1}^{A},... , h_{t}^{A}]$$&lt;/font&gt;" style="text;html=1;strokeColor=none;fillColor=none;align=center;verticalAlign=middle;whiteSpace=wrap;rounded=0;shadow=0;glass=0;sketch=0;fontSize=16;rotation=0;" vertex="1" parent="JwH7_-hSPn-jCVah3qCO-199">
          <mxGeometry x="111.5" y="360" width="70" height="30" as="geometry" />
        </mxCell>
        <mxCell id="JwH7_-hSPn-jCVah3qCO-221" value="" style="ellipse;whiteSpace=wrap;html=1;aspect=fixed;rounded=1;shadow=0;glass=0;sketch=0;strokeWidth=1;fillColor=#ffe6cc;strokeColor=#d79b00;rotation=0;fontSize=18;" vertex="1" parent="JwH7_-hSPn-jCVah3qCO-199">
          <mxGeometry x="173.5" y="59" width="35" height="35" as="geometry" />
        </mxCell>
        <mxCell id="JwH7_-hSPn-jCVah3qCO-222" value="" style="endArrow=classic;html=1;rounded=0;fontSize=18;exitX=0.5;exitY=0;exitDx=0;exitDy=0;" edge="1" parent="JwH7_-hSPn-jCVah3qCO-199" source="JwH7_-hSPn-jCVah3qCO-221">
          <mxGeometry width="50" height="50" relative="1" as="geometry">
            <mxPoint x="664.5" y="150" as="sourcePoint" />
            <mxPoint x="191.5" y="32" as="targetPoint" />
          </mxGeometry>
        </mxCell>
        <mxCell id="JwH7_-hSPn-jCVah3qCO-223" value="&lt;font style=&quot;font-size: 20px;&quot; face=&quot;Helvetica&quot;&gt;$$F_{P}^{S}$$&lt;/font&gt;" style="text;html=1;strokeColor=none;fillColor=none;align=center;verticalAlign=middle;whiteSpace=wrap;rounded=0;shadow=0;glass=0;dashed=1;sketch=0;fontSize=18;rotation=0;" vertex="1" parent="JwH7_-hSPn-jCVah3qCO-199">
          <mxGeometry x="161.5" width="60" height="30" as="geometry" />
        </mxCell>
        <mxCell id="JwH7_-hSPn-jCVah3qCO-224" value="&lt;font style=&quot;font-size: 17px;&quot; face=&quot;Helvetica&quot;&gt;Prediction Layer&lt;/font&gt;&lt;font style=&quot;font-size: 17px;&quot; face=&quot;Helvetica&quot;&gt;&lt;br style=&quot;font-size: 17px;&quot;&gt;&lt;/font&gt;" style="text;html=1;strokeColor=none;fillColor=none;align=center;verticalAlign=middle;whiteSpace=wrap;rounded=0;shadow=0;glass=0;dashed=1;sketch=0;fontSize=17;direction=west;rotation=-90;" vertex="1" parent="JwH7_-hSPn-jCVah3qCO-199">
          <mxGeometry x="-52.3" y="95.2" width="131.62" height="9" as="geometry" />
        </mxCell>
        <mxCell id="JwH7_-hSPn-jCVah3qCO-225" value="" style="swimlane;startSize=0;rounded=1;shadow=0;glass=0;sketch=0;fontSize=18;strokeWidth=1;fillColor=none;gradientColor=none;dashed=1;rotation=0;" vertex="1" parent="JwH7_-hSPn-jCVah3qCO-199">
          <mxGeometry x="21.5" width="339" height="189" as="geometry">
            <mxRectangle x="320" y="210" width="50" height="40" as="alternateBounds" />
          </mxGeometry>
        </mxCell>
        <mxCell id="JwH7_-hSPn-jCVah3qCO-226" value="" style="rounded=1;whiteSpace=wrap;html=1;shadow=0;glass=0;sketch=0;strokeWidth=1;fillColor=#d5e8d4;strokeColor=#82b366;rotation=0;fontSize=18;" vertex="1" parent="JwH7_-hSPn-jCVah3qCO-225">
          <mxGeometry x="5" y="301" width="330" height="40" as="geometry" />
        </mxCell>
        <mxCell id="JwH7_-hSPn-jCVah3qCO-227" value="&lt;font style=&quot;font-size: 18px;&quot;&gt;Concatenation&lt;/font&gt;" style="text;html=1;strokeColor=none;fillColor=none;align=center;verticalAlign=middle;whiteSpace=wrap;rounded=0;shadow=0;glass=0;sketch=0;rotation=0;fontSize=18;" vertex="1" parent="JwH7_-hSPn-jCVah3qCO-225">
          <mxGeometry x="112" y="305" width="115.5" height="30" as="geometry" />
        </mxCell>
        <mxCell id="JwH7_-hSPn-jCVah3qCO-228" value="" style="rounded=1;whiteSpace=wrap;html=1;shadow=0;glass=0;sketch=0;strokeWidth=1;fillColor=#d5e8d4;strokeColor=#82b366;rotation=0;fontSize=18;" vertex="1" parent="JwH7_-hSPn-jCVah3qCO-225">
          <mxGeometry x="4" y="140" width="330" height="40" as="geometry" />
        </mxCell>
        <mxCell id="JwH7_-hSPn-jCVah3qCO-229" value="" style="ellipse;whiteSpace=wrap;html=1;aspect=fixed;rounded=1;shadow=0;glass=0;sketch=0;strokeWidth=1;fillColor=#ffe6cc;strokeColor=#d79b00;rotation=0;fontSize=18;" vertex="1" parent="JwH7_-hSPn-jCVah3qCO-225">
          <mxGeometry x="13" y="143" width="35" height="35" as="geometry" />
        </mxCell>
        <mxCell id="JwH7_-hSPn-jCVah3qCO-230" value="" style="ellipse;whiteSpace=wrap;html=1;aspect=fixed;rounded=1;shadow=0;glass=0;sketch=0;strokeWidth=1;fillColor=#ffe6cc;strokeColor=#d79b00;rotation=0;fontSize=18;" vertex="1" parent="JwH7_-hSPn-jCVah3qCO-225">
          <mxGeometry x="67" y="143" width="35" height="35" as="geometry" />
        </mxCell>
        <mxCell id="JwH7_-hSPn-jCVah3qCO-231" value="" style="ellipse;whiteSpace=wrap;html=1;aspect=fixed;rounded=1;shadow=0;glass=0;sketch=0;strokeWidth=1;fillColor=#ffe6cc;strokeColor=#d79b00;rotation=0;fontSize=18;" vertex="1" parent="JwH7_-hSPn-jCVah3qCO-225">
          <mxGeometry x="125" y="143" width="35" height="35" as="geometry" />
        </mxCell>
        <mxCell id="JwH7_-hSPn-jCVah3qCO-232" value="" style="ellipse;whiteSpace=wrap;html=1;aspect=fixed;rounded=1;shadow=0;glass=0;sketch=0;strokeWidth=1;fillColor=#ffe6cc;strokeColor=#d79b00;rotation=0;fontSize=18;" vertex="1" parent="JwH7_-hSPn-jCVah3qCO-225">
          <mxGeometry x="288" y="143" width="35" height="35" as="geometry" />
        </mxCell>
        <mxCell id="JwH7_-hSPn-jCVah3qCO-233" value="" style="group;rotation=0;fontSize=18;" connectable="0" vertex="1" parent="JwH7_-hSPn-jCVah3qCO-225">
          <mxGeometry x="195" y="155" width="50" height="10" as="geometry" />
        </mxCell>
        <mxCell id="JwH7_-hSPn-jCVah3qCO-234" value="" style="ellipse;whiteSpace=wrap;html=1;aspect=fixed;rounded=1;shadow=0;glass=0;sketch=0;strokeWidth=1;fillColor=#ffe6cc;strokeColor=#d79b00;rotation=0;fontSize=18;" vertex="1" parent="JwH7_-hSPn-jCVah3qCO-233">
          <mxGeometry width="10" height="10" as="geometry" />
        </mxCell>
        <mxCell id="JwH7_-hSPn-jCVah3qCO-235" value="" style="ellipse;whiteSpace=wrap;html=1;aspect=fixed;rounded=1;shadow=0;glass=0;sketch=0;strokeWidth=1;fillColor=#ffe6cc;strokeColor=#d79b00;rotation=0;fontSize=18;" vertex="1" parent="JwH7_-hSPn-jCVah3qCO-233">
          <mxGeometry x="20" width="10" height="10" as="geometry" />
        </mxCell>
        <mxCell id="JwH7_-hSPn-jCVah3qCO-236" value="" style="ellipse;whiteSpace=wrap;html=1;aspect=fixed;rounded=1;shadow=0;glass=0;sketch=0;strokeWidth=1;fillColor=#ffe6cc;strokeColor=#d79b00;rotation=0;fontSize=18;" vertex="1" parent="JwH7_-hSPn-jCVah3qCO-233">
          <mxGeometry x="40" width="10" height="10" as="geometry" />
        </mxCell>
        <mxCell id="JwH7_-hSPn-jCVah3qCO-237" style="edgeStyle=orthogonalEdgeStyle;rounded=0;orthogonalLoop=1;jettySize=auto;html=1;fontSize=18;entryX=0.5;entryY=1;entryDx=0;entryDy=0;" edge="1" parent="JwH7_-hSPn-jCVah3qCO-225" target="JwH7_-hSPn-jCVah3qCO-238">
          <mxGeometry relative="1" as="geometry">
            <mxPoint x="169.70999999999998" y="280" as="targetPoint" />
            <mxPoint x="169.70999999999998" y="301" as="sourcePoint" />
          </mxGeometry>
        </mxCell>
        <mxCell id="JwH7_-hSPn-jCVah3qCO-238" value="" style="rounded=1;whiteSpace=wrap;html=1;shadow=0;glass=0;sketch=0;strokeWidth=1;fillColor=#f8cecc;strokeColor=#b85450;rotation=0;fontSize=18;" vertex="1" parent="JwH7_-hSPn-jCVah3qCO-225">
          <mxGeometry x="4.75" y="229" width="330" height="40" as="geometry" />
        </mxCell>
        <mxCell id="JwH7_-hSPn-jCVah3qCO-239" value="&lt;font style=&quot;font-size: 18px;&quot;&gt;Self-Attention&lt;/font&gt;" style="text;html=1;strokeColor=none;fillColor=none;align=center;verticalAlign=middle;whiteSpace=wrap;rounded=0;shadow=0;glass=0;sketch=0;rotation=0;fontSize=18;" vertex="1" parent="JwH7_-hSPn-jCVah3qCO-225">
          <mxGeometry x="112" y="234" width="115.5" height="30" as="geometry" />
        </mxCell>
        <mxCell id="JwH7_-hSPn-jCVah3qCO-240" value="&lt;font style=&quot;font-size: 18px;&quot; face=&quot;Helvetica&quot;&gt;$$[h_{1}^{A},..., h_{t}^{B}]$$&lt;/font&gt;" style="text;html=1;strokeColor=none;fillColor=none;align=center;verticalAlign=middle;whiteSpace=wrap;rounded=0;shadow=0;glass=0;sketch=0;fontSize=18;rotation=0;" vertex="1" parent="JwH7_-hSPn-jCVah3qCO-225">
          <mxGeometry x="183" y="271" width="95" height="30" as="geometry" />
        </mxCell>
        <mxCell id="JwH7_-hSPn-jCVah3qCO-241" value="&lt;font style=&quot;font-size: 18px;&quot; face=&quot;Helvetica&quot;&gt;$$\alpha_{n}$$&lt;/font&gt;" style="text;html=1;strokeColor=none;fillColor=none;align=center;verticalAlign=middle;whiteSpace=wrap;rounded=0;shadow=0;glass=0;sketch=0;fontSize=18;rotation=0;" vertex="1" parent="JwH7_-hSPn-jCVah3qCO-225">
          <mxGeometry x="292" y="148" width="31" height="25" as="geometry" />
        </mxCell>
        <mxCell id="JwH7_-hSPn-jCVah3qCO-242" value="&lt;font style=&quot;font-size: 18px;&quot; face=&quot;Helvetica&quot;&gt;$$\alpha_{3}$$&lt;/font&gt;" style="text;html=1;strokeColor=none;fillColor=none;align=center;verticalAlign=middle;whiteSpace=wrap;rounded=0;shadow=0;glass=0;sketch=0;fontSize=18;rotation=0;" vertex="1" parent="JwH7_-hSPn-jCVah3qCO-225">
          <mxGeometry x="127" y="148" width="31" height="25" as="geometry" />
        </mxCell>
        <mxCell id="JwH7_-hSPn-jCVah3qCO-243" value="&lt;font style=&quot;font-size: 18px;&quot; face=&quot;Helvetica&quot;&gt;$$\alpha_{1}$$&lt;/font&gt;" style="text;html=1;strokeColor=none;fillColor=none;align=center;verticalAlign=middle;whiteSpace=wrap;rounded=0;shadow=0;glass=0;sketch=0;fontSize=18;rotation=0;" vertex="1" parent="JwH7_-hSPn-jCVah3qCO-225">
          <mxGeometry x="15" y="148" width="31" height="25" as="geometry" />
        </mxCell>
        <mxCell id="JwH7_-hSPn-jCVah3qCO-244" value="&lt;font style=&quot;font-size: 18px;&quot; face=&quot;Helvetica&quot;&gt;$$\alpha_{2}$$&lt;/font&gt;" style="text;html=1;strokeColor=none;fillColor=none;align=center;verticalAlign=middle;whiteSpace=wrap;rounded=0;shadow=0;glass=0;sketch=0;fontSize=18;rotation=0;" vertex="1" parent="JwH7_-hSPn-jCVah3qCO-225">
          <mxGeometry x="69" y="148" width="31" height="25" as="geometry" />
        </mxCell>
        <mxCell id="JwH7_-hSPn-jCVah3qCO-245" value="&lt;font style=&quot;font-size: 18px;&quot; face=&quot;Helvetica&quot;&gt;$$[P_{1}h_{1}^{A},..., P_{t}h_{t}^{B}]$$&lt;/font&gt;" style="text;html=1;strokeColor=none;fillColor=none;align=center;verticalAlign=middle;whiteSpace=wrap;rounded=0;shadow=0;glass=0;sketch=0;fontSize=18;rotation=0;" vertex="1" parent="JwH7_-hSPn-jCVah3qCO-225">
          <mxGeometry x="188" y="199" width="130" height="30" as="geometry" />
        </mxCell>
        <mxCell id="JwH7_-hSPn-jCVah3qCO-246" style="edgeStyle=none;rounded=0;orthogonalLoop=1;jettySize=auto;html=1;exitX=0.5;exitY=0;exitDx=0;exitDy=0;entryX=0.5;entryY=1;entryDx=0;entryDy=0;endArrow=none;endFill=0;fontSize=18;" edge="1" parent="JwH7_-hSPn-jCVah3qCO-199" target="JwH7_-hSPn-jCVah3qCO-221">
          <mxGeometry relative="1" as="geometry">
            <mxPoint x="55.5" y="140" as="sourcePoint" />
          </mxGeometry>
        </mxCell>
        <mxCell id="JwH7_-hSPn-jCVah3qCO-247" style="edgeStyle=none;rounded=0;orthogonalLoop=1;jettySize=auto;html=1;exitX=0.5;exitY=0;exitDx=0;exitDy=0;endArrow=none;endFill=0;entryX=0.5;entryY=1;entryDx=0;entryDy=0;fontSize=18;" edge="1" parent="JwH7_-hSPn-jCVah3qCO-199" target="JwH7_-hSPn-jCVah3qCO-221">
          <mxGeometry relative="1" as="geometry">
            <mxPoint x="186.5" y="100" as="targetPoint" />
            <mxPoint x="110.5" y="140" as="sourcePoint" />
          </mxGeometry>
        </mxCell>
        <mxCell id="JwH7_-hSPn-jCVah3qCO-248" style="rounded=0;orthogonalLoop=1;jettySize=auto;html=1;exitX=0.5;exitY=0;exitDx=0;exitDy=0;endArrow=none;endFill=0;entryX=0.5;entryY=1;entryDx=0;entryDy=0;fontSize=18;" edge="1" parent="JwH7_-hSPn-jCVah3qCO-199" target="JwH7_-hSPn-jCVah3qCO-221">
          <mxGeometry relative="1" as="geometry">
            <mxPoint x="186.5" y="100" as="targetPoint" />
            <mxPoint x="166.5" y="140" as="sourcePoint" />
          </mxGeometry>
        </mxCell>
        <mxCell id="JwH7_-hSPn-jCVah3qCO-249" style="edgeStyle=none;rounded=0;orthogonalLoop=1;jettySize=auto;html=1;exitX=0.5;exitY=0;exitDx=0;exitDy=0;endArrow=none;endFill=0;entryX=0.5;entryY=1;entryDx=0;entryDy=0;fontSize=18;" edge="1" parent="JwH7_-hSPn-jCVah3qCO-199" target="JwH7_-hSPn-jCVah3qCO-221">
          <mxGeometry relative="1" as="geometry">
            <mxPoint x="186.5" y="100" as="targetPoint" />
            <mxPoint x="326.5" y="140" as="sourcePoint" />
          </mxGeometry>
        </mxCell>
        <mxCell id="JwH7_-hSPn-jCVah3qCO-250" value="" style="swimlane;startSize=0;rounded=1;shadow=0;glass=0;sketch=0;fontSize=18;strokeWidth=1;fillColor=none;gradientColor=none;dashed=1;" vertex="1" parent="JwH7_-hSPn-jCVah3qCO-199">
          <mxGeometry x="20.5" y="199" width="340" height="153" as="geometry">
            <mxRectangle x="320" y="210" width="50" height="40" as="alternateBounds" />
          </mxGeometry>
        </mxCell>
        <mxCell id="JwH7_-hSPn-jCVah3qCO-251" style="edgeStyle=orthogonalEdgeStyle;rounded=0;orthogonalLoop=1;jettySize=auto;html=1;fontSize=18;entryX=0.5;entryY=1;entryDx=0;entryDy=0;" edge="1" parent="JwH7_-hSPn-jCVah3qCO-199" target="JwH7_-hSPn-jCVah3qCO-228">
          <mxGeometry relative="1" as="geometry">
            <mxPoint x="191.5" y="197" as="targetPoint" />
            <mxPoint x="191.21000000000004" y="229" as="sourcePoint" />
            <Array as="points">
              <mxPoint x="191" y="205" />
              <mxPoint x="190" y="205" />
            </Array>
          </mxGeometry>
        </mxCell>
        <mxCell id="JwH7_-hSPn-jCVah3qCO-252" value="&lt;font style=&quot;font-size: 17px;&quot;&gt;Attention Layer&lt;/font&gt;" style="text;html=1;strokeColor=none;fillColor=none;align=center;verticalAlign=middle;whiteSpace=wrap;rounded=0;shadow=0;glass=0;dashed=1;sketch=0;fontSize=17;direction=west;rotation=-90;" vertex="1" parent="JwH7_-hSPn-jCVah3qCO-199">
          <mxGeometry x="-44.87" y="275.88" width="116.75" height="9" as="geometry" />
        </mxCell>
        <mxCell id="JwH7_-hSPn-jCVah3qCO-209" value="" style="group;rotation=0;fontSize=18;" connectable="0" vertex="1" parent="JwH7_-hSPn-jCVah3qCO-199">
          <mxGeometry x="22.5" y="400" width="189" height="180" as="geometry" />
        </mxCell>
        <mxCell id="JwH7_-hSPn-jCVah3qCO-210" style="edgeStyle=orthogonalEdgeStyle;rounded=0;orthogonalLoop=1;jettySize=auto;html=1;exitX=0.5;exitY=1;exitDx=0;exitDy=0;fontSize=18;" edge="1" parent="JwH7_-hSPn-jCVah3qCO-209">
          <mxGeometry relative="1" as="geometry">
            <mxPoint x="70" y="150" as="sourcePoint" />
            <mxPoint x="70" y="150" as="targetPoint" />
          </mxGeometry>
        </mxCell>
        <mxCell id="JwH7_-hSPn-jCVah3qCO-212" value="&lt;font style=&quot;font-size: 20px;&quot; face=&quot;Helvetica&quot;&gt;$$flatten(F_{w}^{s_{0}})$$&lt;/font&gt;" style="text;html=1;strokeColor=none;fillColor=none;align=center;verticalAlign=middle;whiteSpace=wrap;rounded=0;shadow=0;glass=0;sketch=0;fontSize=18;rotation=0;" vertex="1" parent="JwH7_-hSPn-jCVah3qCO-209">
          <mxGeometry x="35" y="150" width="70" height="30" as="geometry" />
        </mxCell>
        <mxCell id="JwH7_-hSPn-jCVah3qCO-213" value="" style="endArrow=classic;html=1;rounded=0;fontSize=18;entryX=0.5;entryY=1;entryDx=0;entryDy=0;" edge="1" parent="JwH7_-hSPn-jCVah3qCO-209">
          <mxGeometry width="50" height="50" relative="1" as="geometry">
            <mxPoint x="70" y="154" as="sourcePoint" />
            <mxPoint x="70" y="74" as="targetPoint" />
          </mxGeometry>
        </mxCell>
        <mxCell id="JwH7_-hSPn-jCVah3qCO-253" value="" style="group;fontSize=18;" connectable="0" vertex="1" parent="JwH7_-hSPn-jCVah3qCO-209">
          <mxGeometry x="-4.5" y="34" width="193.5" height="60" as="geometry" />
        </mxCell>
        <mxCell id="JwH7_-hSPn-jCVah3qCO-254" value="" style="rounded=1;whiteSpace=wrap;html=1;glass=0;shadow=0;sketch=0;strokeWidth=1;perimeterSpacing=0;gradientColor=none;fontSize=18;" vertex="1" parent="JwH7_-hSPn-jCVah3qCO-253">
          <mxGeometry width="150" height="40" as="geometry" />
        </mxCell>
        <mxCell id="JwH7_-hSPn-jCVah3qCO-255" value="" style="ellipse;whiteSpace=wrap;html=1;aspect=fixed;shadow=0;glass=0;sketch=0;strokeWidth=1;fillColor=#ffe6cc;strokeColor=#d79b00;fontSize=18;" vertex="1" parent="JwH7_-hSPn-jCVah3qCO-253">
          <mxGeometry x="5" y="5" width="30" height="30" as="geometry" />
        </mxCell>
        <mxCell id="JwH7_-hSPn-jCVah3qCO-256" value="" style="ellipse;whiteSpace=wrap;html=1;aspect=fixed;shadow=0;glass=0;sketch=0;strokeWidth=1;fillColor=#ffe6cc;strokeColor=#d79b00;fontSize=18;" vertex="1" parent="JwH7_-hSPn-jCVah3qCO-253">
          <mxGeometry x="40" y="5" width="30" height="30" as="geometry" />
        </mxCell>
        <mxCell id="JwH7_-hSPn-jCVah3qCO-257" value="" style="ellipse;whiteSpace=wrap;html=1;aspect=fixed;shadow=0;glass=0;sketch=0;strokeWidth=1;fillColor=#ffe6cc;strokeColor=#d79b00;fontSize=18;" vertex="1" parent="JwH7_-hSPn-jCVah3qCO-253">
          <mxGeometry x="111" y="5" width="30" height="30" as="geometry" />
        </mxCell>
        <mxCell id="JwH7_-hSPn-jCVah3qCO-258" value="" style="shape=image;html=1;verticalAlign=top;verticalLabelPosition=bottom;labelBackgroundColor=#ffffff;imageAspect=0;aspect=fixed;image=https://cdn4.iconfinder.com/data/icons/essential-app-1/16/dot-more-menu-hide-128.png;shadow=0;glass=0;sketch=0;strokeWidth=1;gradientColor=none;fontSize=18;" vertex="1" parent="JwH7_-hSPn-jCVah3qCO-253">
          <mxGeometry x="76" y="5" width="30" height="30" as="geometry" />
        </mxCell>
        <mxCell id="JwH7_-hSPn-jCVah3qCO-259" value="&lt;font style=&quot;font-size: 18px;&quot;&gt;$$\beta_{1}$$&lt;/font&gt;" style="text;html=1;align=center;verticalAlign=middle;resizable=0;points=[];autosize=1;strokeColor=none;fillColor=none;fontSize=18;" vertex="1" parent="JwH7_-hSPn-jCVah3qCO-253">
          <mxGeometry x="-44" y="3" width="130" height="34" as="geometry" />
        </mxCell>
        <mxCell id="JwH7_-hSPn-jCVah3qCO-261" value="&lt;font style=&quot;font-size: 18px;&quot;&gt;$$\beta_{2}$$&lt;/font&gt;" style="text;html=1;align=center;verticalAlign=middle;resizable=0;points=[];autosize=1;strokeColor=none;fillColor=none;fontSize=18;" vertex="1" parent="JwH7_-hSPn-jCVah3qCO-253">
          <mxGeometry x="-10" y="3" width="130" height="34" as="geometry" />
        </mxCell>
        <mxCell id="JwH7_-hSPn-jCVah3qCO-260" value="&lt;font style=&quot;font-size: 18px;&quot;&gt;$$\beta_{m}$$&lt;/font&gt;" style="text;html=1;align=center;verticalAlign=middle;resizable=0;points=[];autosize=1;strokeColor=none;fillColor=none;fontSize=18;" vertex="1" parent="JwH7_-hSPn-jCVah3qCO-253">
          <mxGeometry x="58.5" y="3" width="135" height="34" as="geometry" />
        </mxCell>
      </root>
    </mxGraphModel>
  </diagram>
</mxfile>
